{"title":"A History of Football","uid":9067114,"size":522826717,"categoryP":"video","categoryS":"movies","magnet":"?xt=urn:btih:3a78ea87344f46cf350c453706440efe5089f7c8&amp;dn=A+History+of+Football&amp;tr=udp%3A%2F%2Ftracker.openbittorrent.com%3A80&amp;tr=udp%3A%2F%2Fopen.demonii.com%3A1337&amp;tr=udp%3A%2F%2Ftracker.coppersurfer.tk%3A6969&amp;tr=udp%3A%2F%2Fexodus.desync.com%3A6969","seeders":1,"leechers":0,"uploader":null,"files":-1,"time":1382127316,"description":"Volume One\n\nContaining rare archive black &amp; white footage and photographs ,this programme traces the origins of\nthe sportand follows the game up to England 's most famous moment in world cup football in 1966. \n\n\nComplete name                  :A History of Football _White.Horse.Final.to.1966.World.Cup.dvd.rip_.mp4\nFormat                                   : MPEG-4\nFormat profile                           : Base Media\nCodec ID                                 : isom\nFile size                                : 497 MiB\nDuration                                 : 52mn 6s\nOverall bit rate                         : 1 333 Kbps\nMovie name                               : A_White_Horse_Final_To_1966_World_Cup.\nGenre                                    : Documentary\nWriting application                      : Lavf54.46.100\n\nID                                       : 1\nFormat                                   : MPEG-4 Visual\nFormat settings, BVOP                    : No\nFormat settings, QPel                    : No\nFormat settings, GMC                     : No warppoints\nFormat settings, Matrix                  : Default (H.263)\nCodec ID                                 : 20\nDuration                                 : 52mn 6s\nBit rate mode                            : Constant\nBit rate                                 : 1 200 Kbps\nWidth                                    : 720 pixels\nHeight                                   : 540 pixels\nDisplay aspect ratio                     : 4:3\nFrame rate mode                          : Constant\nFrame rate                               : 23.976 fps\nColor space                              : YUV\nChroma subsampling                       : 4:2:0\nBit depth                                : 8 bits\nScan type                                : Progressive\nCompression mode                         : Lossy\nBits/(Pixel*Frame)                       : 0.129\nStream size                              : 447 MiB (90%)\nWriting library                          : Lavc54.79.100\n\nID                                       : 2\nFormat                                   : AAC\nFormat/Info                              : Advanced Audio Codec\nFormat profile                           : LC\nCodec ID                                 : 40\nDuration                                 : 52mn 6s\nBit rate mode                            : Constant\nBit rate                                 : 128 Kbps\nChannel(s)                               : 2 channels\nChannel positions                        : Front: L R\nSampling rate                            : 44.1 KHz\nCompression mode                         : Lossy\nStream size                              : 47.7 MiB (10%)","torrent":{"xt":"urn:btih:3a78ea87344f46cf350c453706440efe5089f7c8","amp;dn":"A+History+of+Football","amp;tr":["udp%3A%2F%2Ftracker.openbittorrent.com%3A80","udp%3A%2F%2Fopen.demonii.com%3A1337","udp%3A%2F%2Ftracker.coppersurfer.tk%3A6969","udp%3A%2F%2Fexodus.desync.com%3A6969"],"infoHash":"3a78ea87344f46cf350c453706440efe5089f7c8","infoHashBuffer":{"type":"Buffer","data":[58,120,234,135,52,79,70,207,53,12,69,55,6,68,14,254,80,137,247,200]},"announce":[],"urlList":[]}}